<svg width="20" height="21" viewBox="0 0 20 21" fill="none" xmlns="http://www.w3.org/2000/svg">
<g clip-path="url(#clip0_677_59)">
<g clip-path="url(#clip1_677_59)">
<path d="M17.9951 16.6396C17.9951 17.7306 17.1769 18.5487 16.086 18.5487H3.90421C2.8133 18.5487 1.99512 17.7306 1.99512 16.6396V8.45783H4.99512C4.72239 9.1851 4.63148 9.91238 4.63148 10.6396C4.63148 13.6396 7.08603 16.0942 10.086 16.0942C13.086 16.0942 15.5406 13.6396 15.5406 10.6396C15.5406 9.91238 15.3588 9.1851 15.1769 8.54874H18.1769L17.9951 16.6396ZM7.17694 8.54874C7.8133 7.63965 8.8133 7.09419 9.99512 7.09419C11.1769 7.09419 12.1769 7.63965 12.8133 8.54874C13.2678 9.09419 13.4497 9.82147 13.4497 10.6396C13.4497 12.5487 11.9042 14.1851 9.90421 14.1851C7.90421 14.1851 6.35875 12.5487 6.35875 10.6396C6.44966 9.91238 6.72239 9.1851 7.17694 8.54874ZM17.1769 2.91238H17.6315V3.36692V6.27601H14.2678V2.91238H17.1769ZM15.9951 0.639648H3.8133C1.72239 0.639648 -0.00488281 2.36692 -0.00488281 4.54874V8.63965V16.8215C-0.00488281 18.8215 1.72239 20.6396 3.90421 20.6396H16.086C18.1769 20.6396 19.9951 18.9124 19.9951 16.7306V8.54874V4.54874C19.9042 2.36692 18.1769 0.639648 15.9951 0.639648Z" fill="white"/>
</g>
</g>
<defs>
<clipPath id="clip0_677_59">
<rect width="20" height="20" fill="white" transform="translate(-0.00488281 0.639648)"/>
</clipPath>
<clipPath id="clip1_677_59">
<rect width="20" height="20" fill="white" transform="translate(-0.00488281 0.639648)"/>
</clipPath>
</defs>
</svg>
