<svg width="20" height="21" viewBox="0 0 20 21" fill="none" xmlns="http://www.w3.org/2000/svg">
<g clip-path="url(#clip0_677_79)">
<g clip-path="url(#clip1_677_79)">
<path d="M19.9951 20.6396H15.8618V14.1063C15.8618 12.5063 15.8618 10.5063 13.7285 10.5063C11.5951 10.5063 11.1951 12.2396 11.1951 13.973V20.6396H7.06178V7.30632H11.0618V9.17298C11.5951 8.10632 12.9285 7.03965 14.9285 7.03965C19.0618 7.03965 19.8618 9.83965 19.8618 13.4396V20.6396H19.9951ZM2.39512 5.43965C1.06178 5.43965 -0.00488281 4.37298 -0.00488281 3.03965C-0.00488281 1.70632 1.06178 0.639648 2.39512 0.639648C3.72845 0.639648 4.79512 1.70632 4.79512 3.03965C4.79512 4.37298 3.72845 5.43965 2.39512 5.43965ZM0.261784 20.6396H4.39512V7.30632H0.261784V20.6396Z" fill="white"/>
</g>
</g>
<defs>
<clipPath id="clip0_677_79">
<rect width="20" height="20" fill="white" transform="translate(-0.00488281 0.639648)"/>
</clipPath>
<clipPath id="clip1_677_79">
<rect width="20" height="20" fill="white" transform="translate(-0.00488281 0.639648)"/>
</clipPath>
</defs>
</svg>
