<svg width="20" height="21" viewBox="0 0 20 21" fill="none" xmlns="http://www.w3.org/2000/svg">
<g clip-path="url(#clip0_677_71)">
<g clip-path="url(#clip1_677_71)">
<path d="M13.9951 0.639648H10.5951V7.13965V8.63965V14.2396C10.5951 15.8396 9.29507 17.2396 7.59507 17.2396C5.89507 17.2396 4.59507 15.9396 4.59507 14.2396C4.59507 12.6396 5.89507 11.2396 7.59507 11.2396C7.89507 11.2396 8.19507 11.3396 8.49507 11.4396V7.93965C8.19507 7.93965 7.89507 7.83965 7.59507 7.83965C4.09507 7.83965 1.19507 10.7396 1.19507 14.2396C1.19507 17.7396 3.99507 20.6396 7.59507 20.6396C11.1951 20.6396 13.9951 17.7396 13.9951 14.2396V7.33965C15.3951 8.33965 16.9951 8.93965 18.8951 8.93965V5.53965C16.0951 5.53965 13.9951 3.33965 13.9951 0.639648Z" fill="white"/>
</g>
</g>
<defs>
<clipPath id="clip0_677_71">
<rect width="20" height="20" fill="white" transform="translate(-0.00488281 0.639648)"/>
</clipPath>
<clipPath id="clip1_677_71">
<rect width="20" height="20" fill="white" transform="translate(-0.00488281 0.639648)"/>
</clipPath>
</defs>
</svg>
