<svg width="23" height="21" viewBox="0 0 23 21" fill="none" xmlns="http://www.w3.org/2000/svg">
<g clip-path="url(#clip0_677_67)">
<g clip-path="url(#clip1_677_67)">
<path d="M9.09512 13.5396V7.13965L15.2951 10.3396L9.09512 13.5396ZM22.7951 6.13965C22.7951 6.13965 22.5951 4.53965 21.8951 3.83965C20.9951 2.93965 19.9951 2.93965 19.5951 2.83965C16.3951 2.63965 11.5951 2.63965 11.5951 2.63965C11.5951 2.63965 6.79512 2.63965 3.59512 2.83965C2.99512 2.93965 1.99512 2.93965 1.09512 3.83965C0.495117 4.53965 0.195117 6.13965 0.195117 6.13965C0.195117 6.13965 -0.00488281 7.93965 -0.00488281 9.73965V11.4396C-0.00488281 13.2396 0.195117 15.1396 0.195117 15.1396C0.195117 15.1396 0.395117 16.7396 1.09512 17.4396C1.99512 18.3396 3.09512 18.3396 3.59512 18.4396C5.39512 18.6396 11.3951 18.6396 11.3951 18.6396C11.3951 18.6396 16.1951 18.6396 19.3951 18.4396C19.7951 18.3396 20.7951 18.3396 21.6951 17.4396C22.3951 16.7396 22.5951 15.1396 22.5951 15.1396C22.5951 15.1396 22.7951 13.3396 22.7951 11.4396V9.73965C22.9951 7.93965 22.7951 6.13965 22.7951 6.13965Z" fill="white"/>
</g>
</g>
<defs>
<clipPath id="clip0_677_67">
<rect width="23" height="20" fill="white" transform="translate(-0.00488281 0.639648)"/>
</clipPath>
<clipPath id="clip1_677_67">
<rect width="23" height="20" fill="white" transform="translate(-0.00488281 0.639648)"/>
</clipPath>
</defs>
</svg>
